<mxfile host="app.diagrams.net" modified="2022-12-21T12:13:14.818Z" agent="5.0 (Macintosh; Intel Mac OS X 10_15_7) AppleWebKit/537.36 (KHTML, like Gecko) Chrome/108.0.0.0 Safari/537.36" version="20.7.4" etag="3E2oaFn1SDLxv2dMCFQe" type="github">
  <diagram id="yAcLhanDVdrnNnhjpeA5" name="Page-1">
    <mxGraphModel dx="4830" dy="1800" grid="1" gridSize="10" guides="1" tooltips="1" connect="1" arrows="1" fold="1" page="1" pageScale="1" pageWidth="827" pageHeight="1169" math="0" shadow="0">
      <root>
        <mxCell id="0" />
        <mxCell id="1" parent="0" />
        <mxCell id="M96NEgAKH5dN4HArhEmM-1" value="DOCTORS" style="rounded=0;whiteSpace=wrap;html=1;fillColor=#d5e8d4;strokeColor=#82b366;" vertex="1" parent="1">
          <mxGeometry x="80" y="10" width="200" height="30" as="geometry" />
        </mxCell>
        <mxCell id="M96NEgAKH5dN4HArhEmM-2" value="VIGILANTES" style="rounded=0;whiteSpace=wrap;html=1;fillColor=#d5e8d4;strokeColor=#82b366;" vertex="1" parent="1">
          <mxGeometry x="280" y="10" width="200" height="30" as="geometry" />
        </mxCell>
        <mxCell id="M96NEgAKH5dN4HArhEmM-3" value="PATIENTS" style="rounded=0;whiteSpace=wrap;html=1;fillColor=#d5e8d4;strokeColor=#82b366;" vertex="1" parent="1">
          <mxGeometry x="480" y="10" width="200" height="30" as="geometry" />
        </mxCell>
        <mxCell id="M96NEgAKH5dN4HArhEmM-35" value="" style="edgeStyle=orthogonalEdgeStyle;rounded=0;orthogonalLoop=1;jettySize=auto;html=1;fontSize=20;startArrow=none;" edge="1" parent="1" source="M96NEgAKH5dN4HArhEmM-44" target="M96NEgAKH5dN4HArhEmM-32">
          <mxGeometry relative="1" as="geometry" />
        </mxCell>
        <mxCell id="M96NEgAKH5dN4HArhEmM-95" style="edgeStyle=orthogonalEdgeStyle;rounded=0;orthogonalLoop=1;jettySize=auto;html=1;fontSize=20;startArrow=none;" edge="1" parent="1" source="M96NEgAKH5dN4HArhEmM-42" target="M96NEgAKH5dN4HArhEmM-20">
          <mxGeometry relative="1" as="geometry" />
        </mxCell>
        <mxCell id="M96NEgAKH5dN4HArhEmM-97" style="edgeStyle=orthogonalEdgeStyle;rounded=0;orthogonalLoop=1;jettySize=auto;html=1;exitX=0;exitY=0.5;exitDx=0;exitDy=0;entryX=1;entryY=0.5;entryDx=0;entryDy=0;fontSize=20;startArrow=none;" edge="1" parent="1" source="M96NEgAKH5dN4HArhEmM-43" target="M96NEgAKH5dN4HArhEmM-10">
          <mxGeometry relative="1" as="geometry" />
        </mxCell>
        <mxCell id="M96NEgAKH5dN4HArhEmM-4" value="&lt;font style=&quot;font-size: 20px;&quot;&gt;PATIENT MANAGEMENT SYSTEM&lt;/font&gt;" style="rounded=0;whiteSpace=wrap;html=1;fillColor=#d5e8d4;strokeColor=#82b366;" vertex="1" parent="1">
          <mxGeometry x="160" y="40" width="440" height="300" as="geometry" />
        </mxCell>
        <mxCell id="M96NEgAKH5dN4HArhEmM-7" value="DOCTORS" style="rounded=0;whiteSpace=wrap;html=1;fillColor=#d5e8d4;strokeColor=#82b366;" vertex="1" parent="1">
          <mxGeometry x="-690" y="10" width="200" height="30" as="geometry" />
        </mxCell>
        <mxCell id="M96NEgAKH5dN4HArhEmM-8" value="VIGILANTES" style="rounded=0;whiteSpace=wrap;html=1;fillColor=#d5e8d4;strokeColor=#82b366;" vertex="1" parent="1">
          <mxGeometry x="-490" y="10" width="200" height="30" as="geometry" />
        </mxCell>
        <mxCell id="M96NEgAKH5dN4HArhEmM-9" value="PATIENTS" style="rounded=0;whiteSpace=wrap;html=1;fillColor=#d5e8d4;strokeColor=#82b366;" vertex="1" parent="1">
          <mxGeometry x="-290" y="10" width="200" height="30" as="geometry" />
        </mxCell>
        <mxCell id="M96NEgAKH5dN4HArhEmM-26" style="edgeStyle=orthogonalEdgeStyle;rounded=0;orthogonalLoop=1;jettySize=auto;html=1;fontSize=20;startArrow=none;" edge="1" parent="1" source="M96NEgAKH5dN4HArhEmM-45">
          <mxGeometry relative="1" as="geometry">
            <mxPoint x="-390" y="440" as="targetPoint" />
          </mxGeometry>
        </mxCell>
        <mxCell id="M96NEgAKH5dN4HArhEmM-48" style="edgeStyle=orthogonalEdgeStyle;rounded=0;orthogonalLoop=1;jettySize=auto;html=1;fontSize=20;entryX=1;entryY=0.5;entryDx=0;entryDy=0;" edge="1" parent="1" source="M96NEgAKH5dN4HArhEmM-10" target="M96NEgAKH5dN4HArhEmM-52">
          <mxGeometry relative="1" as="geometry">
            <mxPoint x="-740" y="190" as="targetPoint" />
          </mxGeometry>
        </mxCell>
        <mxCell id="M96NEgAKH5dN4HArhEmM-10" value="&lt;span style=&quot;font-size: 20px;&quot;&gt;LIST OF DOCTORS&lt;br&gt;&lt;br&gt;ADD NEW DOCTOR&lt;br&gt;&lt;/span&gt;" style="rounded=0;whiteSpace=wrap;html=1;fillColor=#fff2cc;strokeColor=#d6b656;" vertex="1" parent="1">
          <mxGeometry x="-610" y="40" width="440" height="300" as="geometry" />
        </mxCell>
        <mxCell id="M96NEgAKH5dN4HArhEmM-17" value="DOCTORS" style="rounded=0;whiteSpace=wrap;html=1;fillColor=#d5e8d4;strokeColor=#82b366;" vertex="1" parent="1">
          <mxGeometry x="830" y="10" width="200" height="30" as="geometry" />
        </mxCell>
        <mxCell id="M96NEgAKH5dN4HArhEmM-18" value="VIGILANTES" style="rounded=0;whiteSpace=wrap;html=1;fillColor=#d5e8d4;strokeColor=#82b366;" vertex="1" parent="1">
          <mxGeometry x="1030" y="10" width="200" height="30" as="geometry" />
        </mxCell>
        <mxCell id="M96NEgAKH5dN4HArhEmM-19" value="PATIENTS" style="rounded=0;whiteSpace=wrap;html=1;fillColor=#d5e8d4;strokeColor=#82b366;" vertex="1" parent="1">
          <mxGeometry x="1230" y="10" width="200" height="30" as="geometry" />
        </mxCell>
        <mxCell id="M96NEgAKH5dN4HArhEmM-21" style="edgeStyle=orthogonalEdgeStyle;rounded=0;orthogonalLoop=1;jettySize=auto;html=1;fontSize=20;" edge="1" parent="1" source="M96NEgAKH5dN4HArhEmM-20">
          <mxGeometry relative="1" as="geometry">
            <mxPoint x="1130.0000000000005" y="450" as="targetPoint" />
          </mxGeometry>
        </mxCell>
        <mxCell id="M96NEgAKH5dN4HArhEmM-58" style="edgeStyle=orthogonalEdgeStyle;rounded=0;orthogonalLoop=1;jettySize=auto;html=1;fontSize=20;entryX=0;entryY=0.5;entryDx=0;entryDy=0;startArrow=none;" edge="1" parent="1" source="M96NEgAKH5dN4HArhEmM-91" target="M96NEgAKH5dN4HArhEmM-62">
          <mxGeometry relative="1" as="geometry">
            <mxPoint x="1570" y="190" as="targetPoint" />
          </mxGeometry>
        </mxCell>
        <mxCell id="M96NEgAKH5dN4HArhEmM-20" value="&lt;font style=&quot;font-size: 20px;&quot;&gt;LIST OF PATIENTS ALIASES AND NAMES&lt;br&gt;&lt;br&gt;ADD NEW PATIENT&lt;br&gt;&lt;/font&gt;" style="rounded=0;whiteSpace=wrap;html=1;fillColor=#f8cecc;strokeColor=#b85450;" vertex="1" parent="1">
          <mxGeometry x="910" y="40" width="440" height="300" as="geometry" />
        </mxCell>
        <mxCell id="M96NEgAKH5dN4HArhEmM-22" value="DOCTORS" style="rounded=0;whiteSpace=wrap;html=1;fillColor=#d5e8d4;strokeColor=#82b366;" vertex="1" parent="1">
          <mxGeometry x="830" y="450" width="200" height="30" as="geometry" />
        </mxCell>
        <mxCell id="M96NEgAKH5dN4HArhEmM-23" value="VIGILANTES" style="rounded=0;whiteSpace=wrap;html=1;fillColor=#d5e8d4;strokeColor=#82b366;" vertex="1" parent="1">
          <mxGeometry x="1030" y="450" width="200" height="30" as="geometry" />
        </mxCell>
        <mxCell id="M96NEgAKH5dN4HArhEmM-24" value="PATIENTS" style="rounded=0;whiteSpace=wrap;html=1;fillColor=#d5e8d4;strokeColor=#82b366;" vertex="1" parent="1">
          <mxGeometry x="1230" y="450" width="200" height="30" as="geometry" />
        </mxCell>
        <mxCell id="M96NEgAKH5dN4HArhEmM-67" style="edgeStyle=orthogonalEdgeStyle;rounded=0;orthogonalLoop=1;jettySize=auto;html=1;entryX=0;entryY=0.5;entryDx=0;entryDy=0;fontSize=20;startArrow=none;" edge="1" parent="1" source="M96NEgAKH5dN4HArhEmM-93" target="M96NEgAKH5dN4HArhEmM-66">
          <mxGeometry relative="1" as="geometry" />
        </mxCell>
        <mxCell id="M96NEgAKH5dN4HArhEmM-25" value="&lt;font style=&quot;font-size: 20px;&quot;&gt;SHOW PATIENT&lt;br&gt;ALIAS&lt;br&gt;NAME&lt;br&gt;AGE&lt;br&gt;VIGILANTE&lt;br&gt;DOCTOR&lt;br&gt;TREATMENT NOTES&lt;br&gt;&lt;br&gt;EDIT PATIENT&lt;br&gt;DELETE PATIENT&lt;br&gt;&lt;/font&gt;" style="rounded=0;whiteSpace=wrap;html=1;fillColor=#f8cecc;strokeColor=#b85450;" vertex="1" parent="1">
          <mxGeometry x="910" y="480" width="440" height="300" as="geometry" />
        </mxCell>
        <mxCell id="M96NEgAKH5dN4HArhEmM-27" value="DOCTORS" style="rounded=0;whiteSpace=wrap;html=1;fillColor=#d5e8d4;strokeColor=#82b366;" vertex="1" parent="1">
          <mxGeometry x="-690" y="450" width="200" height="30" as="geometry" />
        </mxCell>
        <mxCell id="M96NEgAKH5dN4HArhEmM-28" value="VIGILANTES" style="rounded=0;whiteSpace=wrap;html=1;fillColor=#d5e8d4;strokeColor=#82b366;" vertex="1" parent="1">
          <mxGeometry x="-490" y="450" width="200" height="30" as="geometry" />
        </mxCell>
        <mxCell id="M96NEgAKH5dN4HArhEmM-29" value="PATIENTS" style="rounded=0;whiteSpace=wrap;html=1;fillColor=#d5e8d4;strokeColor=#82b366;" vertex="1" parent="1">
          <mxGeometry x="-290" y="450" width="200" height="30" as="geometry" />
        </mxCell>
        <mxCell id="M96NEgAKH5dN4HArhEmM-72" style="edgeStyle=orthogonalEdgeStyle;rounded=0;orthogonalLoop=1;jettySize=auto;html=1;entryX=1;entryY=0.5;entryDx=0;entryDy=0;fontSize=20;startArrow=none;" edge="1" parent="1" source="M96NEgAKH5dN4HArhEmM-85" target="M96NEgAKH5dN4HArhEmM-71">
          <mxGeometry relative="1" as="geometry" />
        </mxCell>
        <mxCell id="M96NEgAKH5dN4HArhEmM-30" value="&lt;font style=&quot;font-size: 20px;&quot;&gt;SHOW DOCTOR NAME&lt;br&gt;LIST OF ASSIGNED PATIENTS&lt;br&gt;&lt;br&gt;EDIT DOCTOR&lt;br&gt;DELETE DOCTOR&lt;br&gt;&lt;/font&gt;" style="rounded=0;whiteSpace=wrap;html=1;fillColor=#fff2cc;strokeColor=#d6b656;" vertex="1" parent="1">
          <mxGeometry x="-610" y="480" width="440" height="300" as="geometry" />
        </mxCell>
        <mxCell id="M96NEgAKH5dN4HArhEmM-31" value="DOCTORS" style="rounded=0;whiteSpace=wrap;html=1;fillColor=#d5e8d4;strokeColor=#82b366;" vertex="1" parent="1">
          <mxGeometry x="80" y="880" width="200" height="30" as="geometry" />
        </mxCell>
        <mxCell id="M96NEgAKH5dN4HArhEmM-32" value="VIGILANTES" style="rounded=0;whiteSpace=wrap;html=1;fillColor=#d5e8d4;strokeColor=#82b366;" vertex="1" parent="1">
          <mxGeometry x="280" y="880" width="200" height="30" as="geometry" />
        </mxCell>
        <mxCell id="M96NEgAKH5dN4HArhEmM-33" value="PATIENTS" style="rounded=0;whiteSpace=wrap;html=1;fillColor=#d5e8d4;strokeColor=#82b366;" vertex="1" parent="1">
          <mxGeometry x="480" y="880" width="200" height="30" as="geometry" />
        </mxCell>
        <mxCell id="M96NEgAKH5dN4HArhEmM-36" style="edgeStyle=orthogonalEdgeStyle;rounded=0;orthogonalLoop=1;jettySize=auto;html=1;fontSize=20;" edge="1" parent="1" source="M96NEgAKH5dN4HArhEmM-34">
          <mxGeometry relative="1" as="geometry">
            <mxPoint x="380.00000000000045" y="1310" as="targetPoint" />
          </mxGeometry>
        </mxCell>
        <mxCell id="M96NEgAKH5dN4HArhEmM-82" style="edgeStyle=orthogonalEdgeStyle;rounded=0;orthogonalLoop=1;jettySize=auto;html=1;entryX=0.5;entryY=0;entryDx=0;entryDy=0;fontSize=20;startArrow=none;" edge="1" parent="1" source="M96NEgAKH5dN4HArhEmM-87" target="M96NEgAKH5dN4HArhEmM-79">
          <mxGeometry relative="1" as="geometry" />
        </mxCell>
        <mxCell id="M96NEgAKH5dN4HArhEmM-34" value="&lt;font style=&quot;font-size: 20px;&quot;&gt;LIST OF VIGILANTES NAMES&lt;br&gt;&lt;br&gt;ADD NEW VIGILANTE&lt;br&gt;&lt;/font&gt;" style="rounded=0;whiteSpace=wrap;html=1;fillColor=#dae8fc;strokeColor=#6c8ebf;" vertex="1" parent="1">
          <mxGeometry x="160" y="910" width="440" height="300" as="geometry" />
        </mxCell>
        <mxCell id="M96NEgAKH5dN4HArhEmM-37" value="DOCTORS" style="rounded=0;whiteSpace=wrap;html=1;fillColor=#d5e8d4;strokeColor=#82b366;" vertex="1" parent="1">
          <mxGeometry x="80" y="1310" width="200" height="30" as="geometry" />
        </mxCell>
        <mxCell id="M96NEgAKH5dN4HArhEmM-38" value="VIGILANTES" style="rounded=0;whiteSpace=wrap;html=1;fillColor=#d5e8d4;strokeColor=#82b366;" vertex="1" parent="1">
          <mxGeometry x="280" y="1310" width="200" height="30" as="geometry" />
        </mxCell>
        <mxCell id="M96NEgAKH5dN4HArhEmM-39" value="PATIENTS" style="rounded=0;whiteSpace=wrap;html=1;fillColor=#d5e8d4;strokeColor=#82b366;" vertex="1" parent="1">
          <mxGeometry x="480" y="1310" width="200" height="30" as="geometry" />
        </mxCell>
        <mxCell id="M96NEgAKH5dN4HArhEmM-77" style="edgeStyle=orthogonalEdgeStyle;rounded=0;orthogonalLoop=1;jettySize=auto;html=1;entryX=0;entryY=0.5;entryDx=0;entryDy=0;fontSize=20;startArrow=none;" edge="1" parent="1" source="M96NEgAKH5dN4HArhEmM-89" target="M96NEgAKH5dN4HArhEmM-76">
          <mxGeometry relative="1" as="geometry" />
        </mxCell>
        <mxCell id="M96NEgAKH5dN4HArhEmM-40" value="&lt;font style=&quot;font-size: 20px;&quot;&gt;SHOW VIGILANTE NAME&lt;br&gt;LIST OF ASSIGNED PATIENTS&lt;br&gt;&lt;br&gt;EDIT VIGILANTE&lt;br&gt;DELETE VIGILANTE&lt;br&gt;&lt;/font&gt;" style="rounded=0;whiteSpace=wrap;html=1;fillColor=#dae8fc;strokeColor=#6c8ebf;" vertex="1" parent="1">
          <mxGeometry x="160" y="1340" width="440" height="300" as="geometry" />
        </mxCell>
        <mxCell id="M96NEgAKH5dN4HArhEmM-46" value="SELECT PATIENT" style="text;html=1;align=center;verticalAlign=middle;resizable=0;points=[];autosize=1;strokeColor=#b85450;fillColor=#f8cecc;fontSize=20;" vertex="1" parent="1">
          <mxGeometry x="1035" y="370" width="190" height="40" as="geometry" />
        </mxCell>
        <mxCell id="M96NEgAKH5dN4HArhEmM-47" value="SELECT VIGILANTE" style="text;html=1;align=center;verticalAlign=middle;resizable=0;points=[];autosize=1;strokeColor=#6c8ebf;fillColor=#dae8fc;fontSize=20;" vertex="1" parent="1">
          <mxGeometry x="280" y="1240" width="210" height="40" as="geometry" />
        </mxCell>
        <mxCell id="M96NEgAKH5dN4HArhEmM-49" value="DOCTORS" style="rounded=0;whiteSpace=wrap;html=1;fillColor=#d5e8d4;strokeColor=#82b366;" vertex="1" parent="1">
          <mxGeometry x="-1460" y="10" width="200" height="30" as="geometry" />
        </mxCell>
        <mxCell id="M96NEgAKH5dN4HArhEmM-50" value="VIGILANTES" style="rounded=0;whiteSpace=wrap;html=1;fillColor=#d5e8d4;strokeColor=#82b366;" vertex="1" parent="1">
          <mxGeometry x="-1260" y="10" width="200" height="30" as="geometry" />
        </mxCell>
        <mxCell id="M96NEgAKH5dN4HArhEmM-51" value="PATIENTS" style="rounded=0;whiteSpace=wrap;html=1;fillColor=#d5e8d4;strokeColor=#82b366;" vertex="1" parent="1">
          <mxGeometry x="-1060" y="10" width="200" height="30" as="geometry" />
        </mxCell>
        <mxCell id="M96NEgAKH5dN4HArhEmM-52" value="&lt;font style=&quot;font-size: 20px;&quot;&gt;ADD NEW DOCTOR&lt;br&gt;&lt;br&gt;ADD NEW&lt;br&gt;&lt;/font&gt;" style="rounded=0;whiteSpace=wrap;html=1;fillColor=#fff2cc;strokeColor=#d6b656;" vertex="1" parent="1">
          <mxGeometry x="-1380" y="40" width="440" height="300" as="geometry" />
        </mxCell>
        <mxCell id="M96NEgAKH5dN4HArhEmM-59" value="DOCTORS" style="rounded=0;whiteSpace=wrap;html=1;fillColor=#d5e8d4;strokeColor=#82b366;" vertex="1" parent="1">
          <mxGeometry x="1578" y="10" width="200" height="30" as="geometry" />
        </mxCell>
        <mxCell id="M96NEgAKH5dN4HArhEmM-60" value="VIGILANTES" style="rounded=0;whiteSpace=wrap;html=1;fillColor=#d5e8d4;strokeColor=#82b366;" vertex="1" parent="1">
          <mxGeometry x="1778" y="10" width="200" height="30" as="geometry" />
        </mxCell>
        <mxCell id="M96NEgAKH5dN4HArhEmM-61" value="PATIENTS" style="rounded=0;whiteSpace=wrap;html=1;fillColor=#d5e8d4;strokeColor=#82b366;" vertex="1" parent="1">
          <mxGeometry x="1978" y="10" width="200" height="30" as="geometry" />
        </mxCell>
        <mxCell id="M96NEgAKH5dN4HArhEmM-62" value="&lt;font style=&quot;font-size: 20px;&quot;&gt;ADD NEW PATIENT&lt;br&gt;ALIAS&lt;br&gt;NAME&lt;br&gt;AGE&lt;br&gt;VIGILANTE&lt;br&gt;DOCTOR&lt;br&gt;TREATMENT NOTES&lt;br&gt;&lt;br&gt;ADD NEW&lt;br&gt;&lt;/font&gt;" style="rounded=0;whiteSpace=wrap;html=1;fillColor=#f8cecc;strokeColor=#b85450;" vertex="1" parent="1">
          <mxGeometry x="1658" y="40" width="440" height="300" as="geometry" />
        </mxCell>
        <mxCell id="M96NEgAKH5dN4HArhEmM-63" value="DOCTORS" style="rounded=0;whiteSpace=wrap;html=1;fillColor=#d5e8d4;strokeColor=#82b366;" vertex="1" parent="1">
          <mxGeometry x="1578" y="450" width="200" height="30" as="geometry" />
        </mxCell>
        <mxCell id="M96NEgAKH5dN4HArhEmM-64" value="VIGILANTES" style="rounded=0;whiteSpace=wrap;html=1;fillColor=#d5e8d4;strokeColor=#82b366;" vertex="1" parent="1">
          <mxGeometry x="1778" y="450" width="200" height="30" as="geometry" />
        </mxCell>
        <mxCell id="M96NEgAKH5dN4HArhEmM-65" value="PATIENTS" style="rounded=0;whiteSpace=wrap;html=1;fillColor=#d5e8d4;strokeColor=#82b366;" vertex="1" parent="1">
          <mxGeometry x="1978" y="450" width="200" height="30" as="geometry" />
        </mxCell>
        <mxCell id="M96NEgAKH5dN4HArhEmM-66" value="&lt;font style=&quot;font-size: 20px;&quot;&gt;EDIT PATIENT&lt;br&gt;ALIAS&lt;br&gt;NAME&lt;br&gt;AGE&lt;br&gt;VIGILANTE&lt;br&gt;DOCTOR&lt;br&gt;TREATMENT NOTES&lt;br&gt;&lt;br&gt;ADD NEW&lt;br&gt;&lt;/font&gt;" style="rounded=0;whiteSpace=wrap;html=1;fillColor=#f8cecc;strokeColor=#b85450;" vertex="1" parent="1">
          <mxGeometry x="1658" y="480" width="440" height="300" as="geometry" />
        </mxCell>
        <mxCell id="M96NEgAKH5dN4HArhEmM-68" value="DOCTORS" style="rounded=0;whiteSpace=wrap;html=1;fillColor=#d5e8d4;strokeColor=#82b366;" vertex="1" parent="1">
          <mxGeometry x="-1460" y="450" width="200" height="30" as="geometry" />
        </mxCell>
        <mxCell id="M96NEgAKH5dN4HArhEmM-69" value="VIGILANTES" style="rounded=0;whiteSpace=wrap;html=1;fillColor=#d5e8d4;strokeColor=#82b366;" vertex="1" parent="1">
          <mxGeometry x="-1260" y="450" width="200" height="30" as="geometry" />
        </mxCell>
        <mxCell id="M96NEgAKH5dN4HArhEmM-70" value="PATIENTS" style="rounded=0;whiteSpace=wrap;html=1;fillColor=#d5e8d4;strokeColor=#82b366;" vertex="1" parent="1">
          <mxGeometry x="-1060" y="450" width="200" height="30" as="geometry" />
        </mxCell>
        <mxCell id="M96NEgAKH5dN4HArhEmM-71" value="&lt;font style=&quot;font-size: 20px;&quot;&gt;EDIT DOCTOR&lt;br&gt;&lt;br&gt;UPDATE&lt;br&gt;&lt;/font&gt;" style="rounded=0;whiteSpace=wrap;html=1;fillColor=#fff2cc;strokeColor=#d6b656;" vertex="1" parent="1">
          <mxGeometry x="-1380" y="480" width="440" height="300" as="geometry" />
        </mxCell>
        <mxCell id="M96NEgAKH5dN4HArhEmM-73" value="DOCTORS" style="rounded=0;whiteSpace=wrap;html=1;fillColor=#d5e8d4;strokeColor=#82b366;" vertex="1" parent="1">
          <mxGeometry x="830" y="1310" width="200" height="30" as="geometry" />
        </mxCell>
        <mxCell id="M96NEgAKH5dN4HArhEmM-74" value="VIGILANTES" style="rounded=0;whiteSpace=wrap;html=1;fillColor=#d5e8d4;strokeColor=#82b366;" vertex="1" parent="1">
          <mxGeometry x="1030" y="1310" width="200" height="30" as="geometry" />
        </mxCell>
        <mxCell id="M96NEgAKH5dN4HArhEmM-75" value="PATIENTS" style="rounded=0;whiteSpace=wrap;html=1;fillColor=#d5e8d4;strokeColor=#82b366;" vertex="1" parent="1">
          <mxGeometry x="1230" y="1310" width="200" height="30" as="geometry" />
        </mxCell>
        <mxCell id="M96NEgAKH5dN4HArhEmM-76" value="&lt;font style=&quot;font-size: 20px;&quot;&gt;EDIT VIGILANTE&lt;br&gt;NAME&lt;br&gt;TYPE&lt;br&gt;&lt;br&gt;UPDATE&lt;br&gt;&lt;/font&gt;" style="rounded=0;whiteSpace=wrap;html=1;fillColor=#dae8fc;strokeColor=#6c8ebf;" vertex="1" parent="1">
          <mxGeometry x="910" y="1340" width="440" height="300" as="geometry" />
        </mxCell>
        <mxCell id="M96NEgAKH5dN4HArhEmM-78" value="DOCTORS" style="rounded=0;whiteSpace=wrap;html=1;fillColor=#d5e8d4;strokeColor=#82b366;" vertex="1" parent="1">
          <mxGeometry x="-680" y="1310" width="200" height="30" as="geometry" />
        </mxCell>
        <mxCell id="M96NEgAKH5dN4HArhEmM-79" value="VIGILANTES" style="rounded=0;whiteSpace=wrap;html=1;fillColor=#d5e8d4;strokeColor=#82b366;" vertex="1" parent="1">
          <mxGeometry x="-480" y="1310" width="200" height="30" as="geometry" />
        </mxCell>
        <mxCell id="M96NEgAKH5dN4HArhEmM-80" value="PATIENTS" style="rounded=0;whiteSpace=wrap;html=1;fillColor=#d5e8d4;strokeColor=#82b366;" vertex="1" parent="1">
          <mxGeometry x="-280" y="1310" width="200" height="30" as="geometry" />
        </mxCell>
        <mxCell id="M96NEgAKH5dN4HArhEmM-81" value="&lt;font style=&quot;font-size: 20px;&quot;&gt;ADD NEW VIGILANTE&lt;br&gt;NAME&lt;br&gt;TYPE&lt;br&gt;&lt;br&gt;ADD NEW&lt;br&gt;&lt;/font&gt;" style="rounded=0;whiteSpace=wrap;html=1;fillColor=#dae8fc;strokeColor=#6c8ebf;" vertex="1" parent="1">
          <mxGeometry x="-600" y="1340" width="440" height="300" as="geometry" />
        </mxCell>
        <mxCell id="M96NEgAKH5dN4HArhEmM-44" value="VIGILANTES LINK" style="text;html=1;align=center;verticalAlign=middle;resizable=0;points=[];autosize=1;strokeColor=#6c8ebf;fillColor=#dae8fc;fontSize=20;" vertex="1" parent="1">
          <mxGeometry x="285" y="565" width="190" height="40" as="geometry" />
        </mxCell>
        <mxCell id="M96NEgAKH5dN4HArhEmM-83" value="" style="edgeStyle=orthogonalEdgeStyle;rounded=0;orthogonalLoop=1;jettySize=auto;html=1;fontSize=20;endArrow=none;" edge="1" parent="1" source="M96NEgAKH5dN4HArhEmM-4" target="M96NEgAKH5dN4HArhEmM-44">
          <mxGeometry relative="1" as="geometry">
            <mxPoint x="380" y="340" as="sourcePoint" />
            <mxPoint x="380" y="880" as="targetPoint" />
          </mxGeometry>
        </mxCell>
        <mxCell id="M96NEgAKH5dN4HArhEmM-84" value="ADD NEW" style="text;html=1;align=center;verticalAlign=middle;resizable=0;points=[];autosize=1;strokeColor=#d6b656;fillColor=#fff2cc;fontSize=20;" vertex="1" parent="1">
          <mxGeometry x="-835" y="170" width="120" height="40" as="geometry" />
        </mxCell>
        <mxCell id="M96NEgAKH5dN4HArhEmM-85" value="EDIT" style="text;html=1;align=center;verticalAlign=middle;resizable=0;points=[];autosize=1;strokeColor=#d6b656;fillColor=#fff2cc;fontSize=20;" vertex="1" parent="1">
          <mxGeometry x="-820" y="610" width="70" height="40" as="geometry" />
        </mxCell>
        <mxCell id="M96NEgAKH5dN4HArhEmM-86" value="" style="edgeStyle=orthogonalEdgeStyle;rounded=0;orthogonalLoop=1;jettySize=auto;html=1;entryX=1;entryY=0.5;entryDx=0;entryDy=0;fontSize=20;endArrow=none;" edge="1" parent="1" source="M96NEgAKH5dN4HArhEmM-30" target="M96NEgAKH5dN4HArhEmM-85">
          <mxGeometry relative="1" as="geometry">
            <mxPoint x="-610" y="630" as="sourcePoint" />
            <mxPoint x="-940" y="630" as="targetPoint" />
          </mxGeometry>
        </mxCell>
        <mxCell id="M96NEgAKH5dN4HArhEmM-87" value="ADD NEW" style="text;html=1;align=center;verticalAlign=middle;resizable=0;points=[];autosize=1;strokeColor=#6c8ebf;fillColor=#dae8fc;fontSize=20;" vertex="1" parent="1">
          <mxGeometry x="-185" y="1040" width="120" height="40" as="geometry" />
        </mxCell>
        <mxCell id="M96NEgAKH5dN4HArhEmM-88" value="" style="edgeStyle=orthogonalEdgeStyle;rounded=0;orthogonalLoop=1;jettySize=auto;html=1;entryX=1.01;entryY=0.5;entryDx=0;entryDy=0;fontSize=20;endArrow=none;entryPerimeter=0;" edge="1" parent="1" source="M96NEgAKH5dN4HArhEmM-34" target="M96NEgAKH5dN4HArhEmM-87">
          <mxGeometry relative="1" as="geometry">
            <mxPoint x="160" y="1060" as="sourcePoint" />
            <mxPoint x="-380" y="1310" as="targetPoint" />
          </mxGeometry>
        </mxCell>
        <mxCell id="M96NEgAKH5dN4HArhEmM-89" value="EDIT" style="text;html=1;align=center;verticalAlign=middle;resizable=0;points=[];autosize=1;strokeColor=#6c8ebf;fillColor=#dae8fc;fontSize=20;" vertex="1" parent="1">
          <mxGeometry x="710" y="1470" width="70" height="40" as="geometry" />
        </mxCell>
        <mxCell id="M96NEgAKH5dN4HArhEmM-90" value="" style="edgeStyle=orthogonalEdgeStyle;rounded=0;orthogonalLoop=1;jettySize=auto;html=1;entryX=0;entryY=0.5;entryDx=0;entryDy=0;fontSize=20;endArrow=none;" edge="1" parent="1" source="M96NEgAKH5dN4HArhEmM-40" target="M96NEgAKH5dN4HArhEmM-89">
          <mxGeometry relative="1" as="geometry">
            <mxPoint x="600" y="1490" as="sourcePoint" />
            <mxPoint x="910" y="1490" as="targetPoint" />
          </mxGeometry>
        </mxCell>
        <mxCell id="M96NEgAKH5dN4HArhEmM-91" value="ADD NEW" style="text;html=1;align=center;verticalAlign=middle;resizable=0;points=[];autosize=1;strokeColor=#b85450;fillColor=#f8cecc;fontSize=20;" vertex="1" parent="1">
          <mxGeometry x="1445" y="170" width="120" height="40" as="geometry" />
        </mxCell>
        <mxCell id="M96NEgAKH5dN4HArhEmM-92" value="" style="edgeStyle=orthogonalEdgeStyle;rounded=0;orthogonalLoop=1;jettySize=auto;html=1;fontSize=20;entryX=0;entryY=0.5;entryDx=0;entryDy=0;endArrow=none;" edge="1" parent="1" source="M96NEgAKH5dN4HArhEmM-20" target="M96NEgAKH5dN4HArhEmM-91">
          <mxGeometry relative="1" as="geometry">
            <mxPoint x="1658" y="190" as="targetPoint" />
            <mxPoint x="1350" y="190" as="sourcePoint" />
          </mxGeometry>
        </mxCell>
        <mxCell id="M96NEgAKH5dN4HArhEmM-93" value="EDIT" style="text;html=1;align=center;verticalAlign=middle;resizable=0;points=[];autosize=1;strokeColor=#b85450;fillColor=#f8cecc;fontSize=20;" vertex="1" parent="1">
          <mxGeometry x="1470" y="610" width="70" height="40" as="geometry" />
        </mxCell>
        <mxCell id="M96NEgAKH5dN4HArhEmM-94" value="" style="edgeStyle=orthogonalEdgeStyle;rounded=0;orthogonalLoop=1;jettySize=auto;html=1;entryX=0;entryY=0.5;entryDx=0;entryDy=0;fontSize=20;endArrow=none;" edge="1" parent="1" source="M96NEgAKH5dN4HArhEmM-25" target="M96NEgAKH5dN4HArhEmM-93">
          <mxGeometry relative="1" as="geometry">
            <mxPoint x="1350" y="630" as="sourcePoint" />
            <mxPoint x="1658" y="630" as="targetPoint" />
          </mxGeometry>
        </mxCell>
        <mxCell id="M96NEgAKH5dN4HArhEmM-42" value="PATIENTS LINK" style="text;html=1;align=center;verticalAlign=middle;resizable=0;points=[];autosize=1;strokeColor=#b85450;fillColor=#f8cecc;fontSize=20;" vertex="1" parent="1">
          <mxGeometry x="670" y="170" width="170" height="40" as="geometry" />
        </mxCell>
        <mxCell id="M96NEgAKH5dN4HArhEmM-96" value="" style="edgeStyle=orthogonalEdgeStyle;rounded=0;orthogonalLoop=1;jettySize=auto;html=1;fontSize=20;endArrow=none;" edge="1" parent="1" source="M96NEgAKH5dN4HArhEmM-4" target="M96NEgAKH5dN4HArhEmM-42">
          <mxGeometry relative="1" as="geometry">
            <mxPoint x="600" y="190" as="sourcePoint" />
            <mxPoint x="910" y="190" as="targetPoint" />
          </mxGeometry>
        </mxCell>
        <mxCell id="M96NEgAKH5dN4HArhEmM-43" value="DOCTORS LINK" style="text;html=1;align=center;verticalAlign=middle;resizable=0;points=[];autosize=1;strokeColor=#d6b656;fillColor=#fff2cc;fontSize=20;" vertex="1" parent="1">
          <mxGeometry x="-90" y="170" width="170" height="40" as="geometry" />
        </mxCell>
        <mxCell id="M96NEgAKH5dN4HArhEmM-98" value="" style="edgeStyle=orthogonalEdgeStyle;rounded=0;orthogonalLoop=1;jettySize=auto;html=1;exitX=0;exitY=0.5;exitDx=0;exitDy=0;entryX=1;entryY=0.5;entryDx=0;entryDy=0;fontSize=20;endArrow=none;" edge="1" parent="1" source="M96NEgAKH5dN4HArhEmM-4" target="M96NEgAKH5dN4HArhEmM-43">
          <mxGeometry relative="1" as="geometry">
            <mxPoint x="160" y="190" as="sourcePoint" />
            <mxPoint x="-170" y="190" as="targetPoint" />
          </mxGeometry>
        </mxCell>
        <mxCell id="M96NEgAKH5dN4HArhEmM-45" value="SELECT DOCTOR" style="text;html=1;align=center;verticalAlign=middle;resizable=0;points=[];autosize=1;strokeColor=#d6b656;fillColor=#fff2cc;fontSize=20;" vertex="1" parent="1">
          <mxGeometry x="-485" y="360" width="190" height="40" as="geometry" />
        </mxCell>
        <mxCell id="M96NEgAKH5dN4HArhEmM-99" value="" style="edgeStyle=orthogonalEdgeStyle;rounded=0;orthogonalLoop=1;jettySize=auto;html=1;fontSize=20;endArrow=none;" edge="1" parent="1" source="M96NEgAKH5dN4HArhEmM-10" target="M96NEgAKH5dN4HArhEmM-45">
          <mxGeometry relative="1" as="geometry">
            <mxPoint x="-390" y="440" as="targetPoint" />
            <mxPoint x="-390" y="340" as="sourcePoint" />
          </mxGeometry>
        </mxCell>
      </root>
    </mxGraphModel>
  </diagram>
</mxfile>
